<svg xmlns="http://www.w3.org/2000/svg" viewBox="0 0 19.53 19.53"><defs><style>.cls-1{fill:#ab1725;stroke:#ab1725;}.cls-2{fill:none;}</style></defs><title>Asset 1</title><g id="Layer_2" data-name="Layer 2"><g id="Layer_1-2" data-name="Layer 1"><g id="Page-1"><g id="Little-guide"><g id="refresh"><path id="Shape" class="cls-1" d="M17.08,10.65a7.06,7.06,0,0,1-.58,2.83,7,7,0,0,1-1.56,2.31,7.17,7.17,0,0,1-2.33,1.56,7.34,7.34,0,0,1-8-1.56A7.14,7.14,0,0,1,3,13.48a7.29,7.29,0,0,1,1.56-8A7.45,7.45,0,0,1,6.92,3.94a7.29,7.29,0,0,1,2.85-.57A7.39,7.39,0,0,1,14,4.69L11.53,5.91a.34.34,0,0,0-.28.39.34.34,0,0,0,.34.29h.06l3.23-1.35a.35.35,0,0,0,.28-.4L14,1.21a.34.34,0,0,0-.4-.28.34.34,0,0,0-.28.39l1,2.8A8,8,0,0,0,9.77,2.69,7.93,7.93,0,0,0,4.11,5a8,8,0,0,0-1.72,8.73,8.05,8.05,0,0,0,1.72,2.53A8,8,0,0,0,12.88,18a7.93,7.93,0,0,0,2.54-1.7,7.9,7.9,0,0,0,2.35-5.63.35.35,0,0,0-.35-.34A.34.34,0,0,0,17.08,10.65Z"/></g></g></g><rect class="cls-2" width="19.53" height="19.53"/></g></g></svg>