<svg xmlns="http://www.w3.org/2000/svg" width="17" height="18.693" viewBox="0 0 17 18.693"><g transform="translate(0.5 0.508)"><path d="M15.313,9.724a7.234,7.234,0,0,1-2.142,5.145,7.33,7.33,0,0,1-10.342,0A7.279,7.279,0,0,1,8,2.448a7.336,7.336,0,0,1,4.2,1.323L9.766,4.987a.342.342,0,0,0,.057.679.349.349,0,0,0,.057,0l3.233-1.35a.342.342,0,0,0,.282-.394L12.272.285A.343.343,0,0,0,11.594.4l.982,2.8a8.019,8.019,0,0,0-10.233.9A7.963,7.963,0,0,0,8,17.684a8,8,0,0,0,7.371-4.861A7.876,7.876,0,0,0,16,9.724a.344.344,0,0,0-.687,0Z" transform="translate(0 0)" fill="#ab1725" stroke="#ab1725" stroke-miterlimit="10" stroke-width="1"/></g></svg>