<svg xmlns="http://www.w3.org/2000/svg" xmlns:xlink="http://www.w3.org/1999/xlink" width="132" height="18" viewBox="0 0 132 18"><defs><clipPath id="a"><path d="M0,18H132V0H0Z" fill="none"/></clipPath></defs><path d="M4.212,7H0V5.815H1.1V1.186H0V0H5.018c1.672,0,2.42.984,2.42,1.958A1.833,1.833,0,0,1,6.052,3.7l1.3,2.114H8.4V7H5.944L4.129,3.928H3.2V5.815H4.212V7ZM3.2,1.186V2.8h.843c1.122,0,1.21-.632,1.21-.825,0-.294-.207-.793-.985-.793Z" transform="translate(6 6)" fill="#ab1725"/><path d="M0,5.815H.965V1.186H0V0H7.2V2.216H5.644V1.186H3.1V2.793H5.15V3.98H3.1V5.815H5.644V4.773H7.2V7H0Z" transform="translate(18 6)" fill="#ab1725"/><path d="M4.656,7H0V5.815H1.187V1.186H0V0H4.09A4.384,4.384,0,0,1,7.282.949,3.344,3.344,0,0,1,8.4,3.515,3.424,3.424,0,0,1,4.656,7ZM3.226,1.186V5.815H4A2.062,2.062,0,0,0,6.28,3.525,2.115,2.115,0,0,0,3.929,1.186Z" transform="translate(27.6 6)" fill="#ab1725"/><path d="M.963,1.178H0V0H4.044V1.178H3.105l1.36,3.479h.024L5.86,1.178h-.9V0H8.4V1.178H7.437L5.066,7H3.418Z" transform="translate(44.4 6)"/><path d="M0,5.815H.964V1.186H0V0H7.2V2.216H5.645V1.186H3.1V2.793h2.05V3.98H3.1V5.815H5.645V4.773H7.2V7H0Z" transform="translate(55.2 6)"/><path d="M0,5.815H1.161V1.186H0V0H3.627L6.8,4.371h.024V1.186H5.707V0H9.6V1.186H8.375V7H6.434l-3.7-5.145H2.706V5.815H3.791V7H0Z" transform="translate(64.8 6)"/><path d="M7.2,2.814H5.823V1.186H4.633V5.815h1.19V7H1.377V5.815h1.19V1.186H1.377V2.814H0V0H7.2Z" transform="translate(76.8 6)"/><path d="M0,0H3.528V1.172h-.66V4.687c0,.683.224,1.141.983,1.141A.94.94,0,0,0,4.9,4.748V1.172H4.275V0H7.2V1.172H6.252V5.043C6.252,6.653,4.711,7,3.639,7,2.154,7,.893,6.481.893,4.789V1.172H0Z" transform="translate(87.6 6)"/><path d="M4.211,7H0V5.815H1.1V1.186H0V0H5.019C6.69,0,7.438.984,7.438,1.958A1.834,1.834,0,0,1,6.051,3.7l1.3,2.114H8.4V7H5.944L4.128,3.928H3.2V5.815H4.211V7ZM3.2,1.186V2.8h.842c1.122,0,1.21-.632,1.21-.825,0-.294-.207-.793-.984-.793Z" transform="translate(98.4 6)"/><path d="M0,5.815H.965V1.186H0V0H7.2V2.216H5.644V1.186H3.1V2.793H5.149V3.98H3.1V5.815H5.644V4.773H7.2V7H0Z" transform="translate(109.2 6)"/><path d="M.092,4.582H1.6a1.249,1.249,0,0,0,1.365,1.24c.539,0,.984-.323.984-.735C3.951,3.837,0,4.009,0,1.864,0,.534,1.3,0,2.4,0A2.068,2.068,0,0,1,4.03.635h.026V.071h1.5V2.146h-1.5A1.217,1.217,0,0,0,2.771,1.138c-.512,0-.881.232-.881.554C1.89,2.8,6,2.548,6,4.965,6,6.6,4.359,7,3.413,7a2.284,2.284,0,0,1-1.785-.664H1.6v.573H.092Z" transform="translate(120 6)"/><path d="M0,18H132V0H0Z" fill="none"/><g clip-path="url(#a)"><path d="M0,13H.6V0H0Z" transform="translate(39.6 2)"/></g></svg>